# 3ds Max Wavefront OBJ Exporter v0.97b - (c)2007 guruware
# File Created: 04.07.2016 13:20:49

mtllib Triangle.mtl

#
# object Cylinder001
#

v  -0.5938 0.0229 0.3561
v  0.5938 0.0229 0.3561
v  0.5938 0.0918 0.3561
v  -0.5938 0.0918 0.3561
v  0.6053 0.0229 0.3362
v  0.0115 0.0229 -0.6923
v  0.0115 0.0918 -0.6923
v  0.6053 0.0918 0.3362
v  -0.0115 0.0229 -0.6923
v  -0.6053 0.0229 0.3362
v  -0.6053 0.0918 0.3362
v  -0.0115 0.0918 -0.6923
v  -0.0000 0.0000 -0.6663
v  0.5770 0.0000 0.3332
v  -0.5770 0.0000 0.3332
v  -0.5770 0.1147 0.3332
v  0.5770 0.1147 0.3332
v  -0.0000 0.1147 -0.6663
# 18 vertices

vn -0.4668 -0.3847 0.7963
vn 0.4668 -0.3847 0.7963
vn 0.4668 0.3847 0.7963
vn -0.4668 0.3847 0.7963
vn 0.9230 -0.3847 0.0062
vn 0.4562 -0.3847 -0.8024
vn 0.4562 0.3847 -0.8024
vn 0.9230 0.3847 0.0062
vn -0.4562 -0.3847 -0.8024
vn -0.9230 -0.3847 0.0062
vn -0.9230 0.3847 0.0062
vn -0.4562 0.3847 -0.8024
vn -0.0000 -0.9210 -0.3896
vn 0.3374 -0.9210 0.1948
vn -0.3374 -0.9210 0.1948
vn -0.3374 0.9210 0.1948
vn 0.3374 0.9210 0.1948
vn -0.0000 0.9210 -0.3896
# 18 vertex normals

vt 0.1787 0.5031 0.0000
vt 0.1715 0.9117 0.0000
vt 0.1442 0.9112 0.0000
vt 0.1513 0.5026 0.0000
vt 0.8716 0.1189 0.0000
vt 0.8716 0.5908 0.0000
vt 0.8442 0.5908 0.0000
vt 0.8442 0.1189 0.0000
vt 0.0946 0.9117 0.0000
vt 0.0910 0.5030 0.0000
vt 0.1184 0.5027 0.0000
vt 0.1220 0.9114 0.0000
vt 0.3892 0.6665 0.0000
vt 0.0279 0.0278 0.0000
vt 0.7616 0.0343 0.0000
vt 0.6081 0.3340 0.0000
vt 0.9750 0.9694 0.0000
vt 0.2412 0.9694 0.0000
vt 0.7724 0.0198 0.0000
vt 0.7796 0.0325 0.0000
vt 0.0100 0.0257 0.0000
vt 0.0173 0.0132 0.0000
vt 0.3963 0.6831 0.0000
vt 0.3818 0.6829 0.0000
vt 0.6154 0.3175 0.0000
vt 0.6008 0.3175 0.0000
vt 0.9857 0.9840 0.0000
vt 0.9929 0.9714 0.0000
vt 0.2233 0.9714 0.0000
vt 0.2306 0.9840 0.0000
vt 0.1714 0.9196 0.0000
vt 0.1440 0.9191 0.0000
vt 0.1521 0.4549 0.0000
vt 0.1612 0.4551 0.0000
vt 0.1607 0.4825 0.0000
vt 0.1516 0.4823 0.0000
vt 0.8807 0.1256 0.0000
vt 0.8807 0.5842 0.0000
vt 0.0947 0.9195 0.0000
vt 0.1220 0.9193 0.0000
vt 0.8351 0.5842 0.0000
vt 0.8351 0.1256 0.0000
vt 0.1999 0.4481 0.0000
vt 0.2127 0.4550 0.0000
vt 0.2047 0.9135 0.0000
vt 0.1917 0.9199 0.0000
vt 0.9138 0.5908 0.0000
vt 0.9010 0.5842 0.0000
vt 0.9010 0.1256 0.0000
vt 0.9138 0.1189 0.0000
# 50 texture coords

g Cylinder001
usemtl wire_028089177
s 1
f 1/1/1 2/2/2 3/3/3 
f 3/3/3 4/4/4 1/1/1 
f 5/5/5 6/6/6 7/7/7 
f 7/7/7 8/8/8 5/5/5 
f 9/9/9 10/10/10 11/11/11 
f 11/11/11 12/12/12 9/9/9 
f 13/13/13 14/14/14 15/15/15 
f 16/16/16 17/17/17 18/18/18 
f 1/19/1 10/20/10 15/15/15 
f 14/14/14 5/21/5 2/22/2 
f 9/23/9 6/24/6 13/13/13 
f 4/25/4 16/16/16 11/26/11 
f 8/27/8 17/17/17 3/28/3 
f 12/29/12 18/18/18 7/30/7 
f 1/19/1 15/15/15 14/14/14 
f 14/14/14 2/22/2 1/19/1 
f 2/2/2 5/31/5 8/32/8 
f 8/32/8 3/3/3 2/2/2 
f 3/28/3 17/17/17 16/16/16 
f 16/16/16 4/25/4 3/28/3 
f 4/33/4 11/34/11 10/35/10 
f 10/35/10 1/36/1 4/33/4 
f 5/5/5 14/37/14 13/38/13 
f 13/38/13 6/6/6 5/5/5 
f 6/39/6 9/9/9 12/12/12 
f 12/12/12 7/40/7 6/39/6 
f 7/7/7 18/41/18 17/42/17 
f 17/42/17 8/8/8 7/7/7 
f 9/43/9 13/44/13 15/45/15 
f 15/45/15 10/46/10 9/43/9 
f 11/47/11 16/48/16 18/49/18 
f 18/49/18 12/50/12 11/47/11 
# 32 faces

